<?xml version="1.0" encoding="UTF-8"?>
<svg width="1200pt" height="1200pt" version="1.1" viewBox="0 0 1200 1200" xmlns="http://www.w3.org/2000/svg">
 <path d="m1116 578.4c-30-61.199-84-124.8-153.6-180-96-76.801-192-120-264-120-44.398 0-79.199 15.602-103.2 45.602-7.1992 8.3984-10.801 18-13.199 28.801l-27.602 32.398c-1.1992 1.1992-3.6016 2.3984-6 3.6016-3.6016 2.3984-9.6016 6-12 12-3.6016 2.3984-7.1992 4.8008-9.6016 7.1992-38.398-6-93.602-10.801-132-10.801-202.8 1.1992-333.6 68.402-333.6 172.8 0 10.801 2.3984 20.398 6 30v44.398c0 2.3984-1.1992 3.6016-1.1992 7.1992-1.1992 4.8008-3.6016 10.801-2.3984 16.801-3.6016 9.6016-6 25.199 3.6016 39.602v2.3984 1.1992 16.801h-1.1992c-3.6016 2.3984-4.8008 4.8008-4.8008 9.6016 0 7.1992 12 183.6 332.4 183.6 128.4 0 234-30 285.6-81.602 74.398 51.602 144 78 206.4 78 57.602 0 94.801-22.801 111.6-36 3.6016-3.6016 15.602-21.602 21.602-32.398 18-7.1992 25.199-20.398 27.602-30 2.3984-1.1992 3.6016-1.1992 6-3.6016 8.3984-6 13.199-15.602 12-24l2.3984-3.6016s1.1992-1.1992 1.1992-1.1992c1.1992-2.3984 6-7.1992 9.6016-12 4.8008-6 7.1992-9.6016 9.6016-12 9.6016-4.8008 16.801-10.801 24-19.199l6-7.1992c31.191-38.402 29.992-93.602-1.207-158.4zm-97.199 249.6c-4.8008-6-13.199-6-15.602-6-2.3984 0-6 0-8.3984 1.1992h-6c-3.6016 0-7.1992-2.3984-10.801-4.8008-2.3984-1.1992-4.8008-3.6016-8.3984-4.8008-8.3984-4.8008-18-6-27.602-7.1992-2.3984 0-4.8008-1.1992-8.3984-1.1992h-2.3984c-13.199-2.3984-20.398-3.6016-30-12-10.801-9.6016-19.199-14.398-32.398-18-22.801-6-38.398-19.199-51.602-33.602-13.199-13.199-30-21.602-45.602-30-14.398-7.1992-27.602-14.398-39.602-24-9.6016-8.3984-16.801-16.801-26.398-26.398-9.6016-10.801-19.199-21.602-30-31.199-13.199-12-24-25.199-34.801-38.398-3.6016-4.8008-8.3984-9.6016-12-15.602-4.8008-4.8008-9.6016-9.6016-14.398-13.199-4.8008-3.6016-8.3984-7.1992-12-10.801-3.6016-3.6016-6-9.6016-9.6016-15.602-1.1992-2.3984-2.3984-4.8008-3.6016-7.1992-7.1992-12-15.602-22.801-22.801-32.398-3.6016-4.8008-8.3984-9.6016-12-15.602-3.6016-4.8008-4.8008-10.801-7.1992-18-2.3984-9.6016-4.8008-20.398-14.398-28.801 0-2.3984 1.1992-4.8008 2.3984-7.1992 1.1992 1.1992 1.1992 3.6016 2.3984 4.8008 1.1992 2.3984 2.3984 4.8008 3.6016 7.1992 0 2.3984 1.1992 3.6016 1.1992 4.8008 1.1992 6 3.6016 13.199 12 21.602 3.6016 2.3984 6 4.8008 9.6016 7.1992 4.8008 3.6016 9.6016 7.1992 12 10.801 4.8008 6 7.1992 14.398 10.801 22.801 3.6016 8.3984 6 18 12 26.398 8.3984 12 19.199 19.199 30 26.398 8.3984 6 15.602 10.801 21.602 18 4.8008 6 9.6016 13.199 14.398 20.398 8.3984 13.199 18 27.602 34.801 38.398 21.602 14.398 39.602 28.801 57.602 46.801l10.801 10.801c10.801 12 22.801 24 38.398 31.199 7.1992 3.6016 14.398 6 21.602 8.3984 14.398 4.8008 26.398 9.6016 39.602 20.398 12 9.6016 25.199 16.801 37.199 22.801 4.8008 2.3984 9.6016 3.6016 14.398 4.8008 6 1.1992 10.801 2.3984 15.602 4.8008 4.8008 2.3984 8.3984 4.8008 13.199 7.1992 4.8008 2.3984 9.6016 4.8008 14.398 7.1992 2.3984 1.1992 6 3.6016 8.3984 6 6 4.8008 13.199 9.6016 22.801 10.801 4.8008 1.1992 12 0 18 0 3.6016 0 7.1992-1.1992 9.6016 0 2.3984 0 3.6016 1.1992 6 1.1992-2.4023 3.6055-4.8047 7.207-8.4023 9.6055zm-318-103.2c-121.2-97.199-178.8-207.6-196.8-248.4 1.1992-1.1992 2.3984-1.1992 3.6016-2.3984 10.801-8.3984 10.801-8.3984 10.801-9.6016 1.1992-1.1992 1.1992-2.3984 2.3984-4.8008l4.8008-6c2.3984 3.6016 3.6016 8.3984 4.8008 14.398 2.3984 7.1992 4.8008 16.801 9.6016 24 3.6016 6 8.3984 10.801 12 15.602 7.1992 9.6016 14.398 19.199 21.602 30 1.1992 2.3984 2.3984 3.6016 3.6016 6 3.6016 7.1992 7.1992 13.199 12 19.199 4.8008 4.8008 9.6016 9.6016 14.398 13.199 4.8008 3.6016 8.3984 7.1992 12 10.801 3.6016 4.8008 8.3984 9.6016 12 14.398 10.801 14.398 22.801 28.801 37.199 42 10.801 8.3984 19.199 19.199 28.801 28.801 8.3984 9.6016 18 19.199 27.602 27.602 13.199 12 28.801 19.199 44.398 27.602 15.602 7.1992 30 14.398 40.801 26.398 14.398 14.398 33.602 31.199 60 38.398 10.801 2.3984 15.602 6 25.199 14.398 13.199 10.801 24 13.199 38.398 15.602h2.3984c2.3984 0 6 1.1992 8.3984 1.1992 8.3984 1.1992 15.602 2.3984 21.602 6 2.3984 1.1992 3.6016 2.3984 6 3.6016 4.8008 3.6016 10.801 7.1992 19.199 8.3984h10.801 4.8008c-3.6016 6-9.6016 15.602-13.199 21.602-45.605-8.3984-166.8-39.598-289.2-138zm-307.2-306c34.801 0 85.199 3.6016 121.2 9.6016-1.1992 2.3984-1.1992 4.8008-1.1992 7.1992 0 1.1992-1.1992 1.1992-1.1992 2.3984l-1.1992 1.1992-9.6016 12c0 1.1992-1.1992 1.1992-1.1992 2.3984-1.1992 1.1992-3.6016 3.6016-6 4.8008-8.3984 6-9.6016 7.1992-10.801 8.3984 0 0-1.1992 1.1992-1.1992 2.3984-12 26.398-37.199 99.602 25.199 200.4-38.398 7.1992-79.199 7.1992-112.8 7.1992-157.2 0-247.2-38.398-288-61.199-16.801-9.6016-26.398-26.398-26.398-45.602-0.003906-92.391 123.6-151.19 313.2-151.19zm160.8 313.2c3.6016 4.8008 8.3984 8.3984 12 13.199l-6 2.3984c-1.1992 0-2.3984 1.1992-3.6016 1.1992-21.602 9.6016-42 8.3984-61.199 6-19.199-2.3984-37.199 2.3984-54 6-15.602 3.6016-30 7.1992-45.602 6-12 0-24-2.3984-37.199-4.8008-13.199-2.3984-27.602-4.8008-43.199-4.8008-18-1.1992-34.801-4.8008-51.602-8.3984-6-1.1992-12-2.3984-19.199-4.8008-7.1992-1.1992-13.199-1.1992-19.199-2.3984-6 0-10.801 0-15.602-1.1992-4.8008-1.1992-10.801-3.6016-16.801-6-2.3984-1.1992-4.8008-2.3984-7.1992-2.3984-13.199-4.8008-26.398-8.3984-38.398-10.801-6-1.1992-12-2.3984-19.199-4.8008-6-1.1992-10.801-4.8008-16.801-9.6016-8.3984-6-16.801-12-28.801-13.199-1.1992-2.3984-2.3984-4.8008-2.3984-7.1992 1.1992 1.1992 3.6016 1.1992 4.8008 2.3984 2.3984 1.1992 4.8008 2.3984 7.1992 3.6016 1.2031 2.4023 2.4023 3.6016 4.8008 3.6016 4.8008 3.6016 10.801 8.3984 22.801 9.6016h12c6 0 12 0 16.801 1.1992 8.3984 2.3984 14.398 6 21.602 10.801 8.3984 4.8008 15.602 9.6016 26.398 13.199 13.199 3.6016 27.602 3.6016 39.602 2.3984 9.6016-1.1992 19.199-1.1992 28.801 0 8.3984 1.1992 15.602 3.6016 24 7.1992 15.602 4.8008 32.398 10.801 50.398 8.3984 26.398-2.3984 49.199-2.3984 74.398 0 4.8008 0 9.6016 1.1992 14.398 2.3984 9.6016 1.1992 19.199 2.3984 30 2.3984 6 0 13.199 0 19.199-2.3984 7.1992-1.1992 13.199-4.8008 20.398-7.1992 16.805-5.9961 34.805-13.195 56.402-11.996zm-466.8-15.602c3.6016 1.1992 7.1992 4.8008 13.199 8.3984 6 4.8008 13.199 9.6016 22.801 13.199 7.1992 2.3984 13.199 3.6016 19.199 4.8008 12 2.3984 22.801 4.8008 34.801 9.6016 2.3984 1.1992 4.8008 1.1992 6 2.3984 7.1992 2.3984 14.398 6 20.398 7.1992 7.1992 1.1992 13.199 1.1992 19.199 2.3984 6 0 10.801 0 15.602 1.1992 6 1.1992 12 2.3984 18 3.6016 18 3.6016 36 8.3984 55.199 8.3984 13.199 0 27.602 2.3984 40.801 4.8008 13.199 2.3984 25.199 3.6016 38.398 4.8008h6c15.602 0 31.199-3.6016 45.602-6 16.801-3.6016 32.398-7.1992 48-6 20.398 2.3984 45.602 2.3984 70.801-8.3984 1.1992 0 2.3984-1.1992 3.6016-1.1992l6-2.3984c2.3984-1.1992 4.8008-2.3984 6-4.8008 6 6 13.199 12 19.199 18-48 16.801-126 28.801-205.2 28.801-172.8 0-276-50.398-307.2-68.398l-0.003906-20.402zm404.4 9.6016c-7.1992 2.3984-13.199 4.8008-18 6-12 3.6016-26.398 1.1992-40.801-1.1992-4.8008-1.1992-10.801-1.1992-15.602-2.3984-26.398-2.3984-50.398-2.3984-78 0-15.602 1.1992-28.801-3.6016-43.199-8.3984-8.3984-2.3984-16.801-6-25.199-7.1992-12-2.3984-22.801-1.1992-33.602-1.1992-12 1.1992-22.801 1.1992-32.398-1.1992-7.1992-2.3984-14.398-6-21.602-10.801-8.3984-4.8008-16.801-9.6016-27.602-13.199-7.1992-2.3984-15.602-2.3984-22.801-1.1992h-10.801c-6 0-7.1992-1.1992-12-4.8008-1.1992-1.1992-3.6016-2.3984-6-3.6016-3.6016-2.3984-7.1992-3.6016-10.801-4.8008-4.8008-2.3984-8.3984-3.6016-9.6016-6-1.1992-1.1992 0-3.6016 1.1992-7.1992 1.1992-3.6016 2.3984-8.3984 2.3984-13.199v-19.199c3.6016 2.3984 6 4.8008 9.6016 7.1992 42 24 135.6 63.602 297.6 63.602 36 0 81.602 0 124.8-8.3984 6 8.3984 12 16.801 19.199 25.199-19.191 1.1914-33.594 5.9922-46.793 11.992zm-98.398 175.2c-238.8 0-295.2-99.602-308.4-144 40.801 22.801 144 67.199 309.6 67.199 86.398 0 172.8-13.199 222-33.602 6 4.8008 12 9.6016 18 14.398 9.6016 7.1992 19.199 14.398 28.801 21.602-49.207 46.805-151.21 74.402-270 74.402zm493.2-3.5977c-70.801 0-151.2-36-240-106.8-168-135.6-168-242.4-154.8-291.6 25.199 50.398 84 151.2 195.6 241.2 111.6 90 224.4 126 278.4 139.2-18 8.4023-44.398 18.004-79.199 18.004zm165.6-122.4-6 7.1992c-2.3984 2.3984-2.3984 7.1992-1.1992 10.801 1.1992 2.3984-1.1992 4.8008-3.6016 6-2.3984 1.1992-3.6016 1.1992-4.8008 1.1992s-3.6016 0-6-1.1992-6-1.1992-9.6016-2.3984h-13.199c-4.8008 0-9.6016 1.1992-13.199 0-4.8008-1.1992-9.6016-3.6016-15.602-7.1992-3.6016-2.3984-7.1992-4.8008-10.801-6-4.8008-2.3984-8.3984-4.8008-13.199-7.1992-4.8008-2.3984-8.3984-4.8008-13.199-7.1992-6-3.6016-13.199-4.8008-19.199-7.1992-4.8008-1.1992-8.3984-2.3984-12-3.6016-10.801-4.8008-21.602-10.801-32.398-19.199-15.602-13.199-30-18-44.398-22.801-6-2.3984-13.199-4.8008-20.398-8.3984-10.801-4.8008-21.602-15.602-31.199-26.398-3.6016-3.6016-7.1992-7.1992-10.801-10.801-19.199-18-37.199-33.602-61.199-49.199-12-8.3984-20.398-20.398-28.801-33.602-4.8008-7.1992-9.6016-14.398-15.602-21.602-7.1992-9.6016-16.801-15.602-26.398-21.602-9.6016-7.1992-18-13.199-25.199-21.602-4.8008-7.1992-7.1992-14.398-9.6016-21.602-3.6016-9.6016-7.1992-18-13.199-27.602-4.8008-6-10.801-10.801-16.801-15.602-2.3984-2.3984-6-4.8008-8.3984-6-4.8008-4.8008-4.8008-6-6-12 0-2.3984-1.1992-3.6016-1.1992-6-1.1992-3.6016-3.6016-7.1992-4.8008-10.801-2.3984-4.8008-4.8008-8.3984-3.6016-10.801 0-1.1992 1.1992-2.3984 6-4.8008 3.6016-2.3984 7.1992-4.8008 10.801-8.3984l12-14.398c1.1992 3.6016 2.3984 7.1992 3.6016 10.801 18 44.398 66 134.4 192 235.2 112.8 90 201.6 123.6 256.8 134.4 9.6016 2.3984 16.801 2.3984 24 2.3984-0.003906 3.6094-2.4023 6.0078-3.6055 7.207zm50.402-52.801-6 7.1992c-10.801 13.199-22.801 18-38.398 18-6 0-13.199-1.1992-20.398-2.3984-52.801-10.801-139.2-43.199-248.4-130.8-122.4-98.398-169.2-184.8-186-228-7.1992-18-3.6016-37.199 7.1992-51.602 20.398-25.199 49.199-38.398 87.602-38.398 67.199 0 159.6 42 250.8 116.4 67.199 54 120 115.2 147.6 172.8 28.793 58.801 31.191 106.8 5.9922 136.8z" fill="#fff"/>
</svg>
